<?xml version="1.0" standalone="no"?>
<!DOCTYPE svg PUBLIC "-//W3C//DTD SVG 20010904//EN"
 "http://www.w3.org/TR/2001/REC-SVG-20010904/DTD/svg10.dtd">
<svg version="1.0" xmlns="http://www.w3.org/2000/svg"
 width="128.000000pt" height="128.000000pt" viewBox="0 0 128.000000 128.000000"
 preserveAspectRatio="xMidYMid meet">
<metadata>
Created by potrace 1.14, written by Peter Selinger 2001-2017
</metadata>
<g transform="translate(0.000000,128.000000) scale(0.100000,-0.100000)"
fill="#000000" stroke="none">
<path d="M568 1075 c-2 -1 -26 -5 -55 -9 -177 -21 -358 -139 -420 -273 -38
-82 -38 -185 1 -262 32 -61 102 -141 154 -173 l36 -22 -75 -69 c-41 -38 -66
-67 -57 -64 10 4 18 1 18 -5 0 -7 4 -7 14 1 8 7 17 8 19 4 6 -10 48 -10 63 -1
5 4 24 5 41 4 17 -1 30 1 28 4 -2 4 10 7 27 8 17 0 34 6 38 13 6 8 9 8 13 -2
4 -11 6 -11 6 -1 1 7 6 10 12 6 6 -3 15 -1 19 6 5 8 25 13 47 13 122 -3 179
-8 185 -18 5 -6 8 -5 8 3 0 8 10 13 23 12 12 -1 24 -1 27 0 7 3 59 10 88 12
12 1 22 5 22 8 0 4 6 7 13 7 24 1 42 8 55 23 12 13 13 13 6 0 -7 -12 -5 -13 8
-3 8 7 18 10 21 6 4 -3 7 -1 7 6 0 7 6 11 14 8 8 -3 16 -3 18 1 4 9 65 52 74
52 10 0 59 54 56 63 -1 4 5 7 13 7 8 0 15 7 15 15 0 9 7 18 15 21 8 4 13 10
10 14 -3 4 2 13 10 20 8 7 12 16 9 21 -3 5 0 9 7 9 7 0 10 3 6 6 -3 4 0 19 9
35 10 20 11 29 3 29 -7 0 -8 4 -2 13 10 13 10 73 -1 98 -4 9 -6 20 -4 25 2 5
-11 34 -28 64 -36 62 -108 134 -175 173 -53 31 -165 72 -224 82 -42 7 -211 15
-217 10z"/>
</g>
</svg>
